<?xml version="1.0" encoding="UTF-8" standalone="no"?>
<!DOCTYPE svg PUBLIC "-//W3C//DTD SVG 1.1//EN" "http://www.w3.org/Graphics/SVG/1.1/DTD/svg11.dtd">
<svg width="100%" height="100%" viewBox="0 0 56 56" version="1.1" xmlns="http://www.w3.org/2000/svg" xmlns:xlink="http://www.w3.org/1999/xlink" xml:space="preserve" xmlns:serif="http://www.serif.com/" style="fill-rule:evenodd;clip-rule:evenodd;stroke-linejoin:round;stroke-miterlimit:2;">
    <g id="ic_dark" transform="matrix(0.875,0,0,0.875,0,1.06581e-14)">
        <rect x="0" y="0" width="64" height="64" style="fill:none;"/>
        <clipPath id="_clip1">
            <rect x="0" y="0" width="64" height="64"/>
        </clipPath>
        <g clip-path="url(#_clip1)">
            <g transform="matrix(1.14286,0,0,1.14286,9.14286,-4.57143)">
                <circle cx="20" cy="6" r="2" style="fill-opacity:0.2;"/>
            </g>
            <g transform="matrix(0.989743,-0.571429,0.571429,0.989743,-6.08058,11.7568)">
                <circle cx="20" cy="6" r="2"/>
            </g>
            <g transform="matrix(0.989743,0.571429,-0.571429,0.989743,30.4908,-11.1004)">
                <circle cx="20" cy="6" r="2" style="fill-opacity:0.2;"/>
            </g>
            <g transform="matrix(0.989743,-0.571429,0.571429,0.989743,-17.9734,18.6182)">
                <path d="M33.5,12.056C43.839,12.824 52,21.466 52,32C52,43.038 43.038,52 32,52C20.962,52 12,43.038 12,32C12,21.466 20.161,12.824 30.5,12.056L30.5,20.483L33.5,20.483L33.5,12.056Z"/>
            </g>
        </g>
    </g>
</svg>
